<svg xmlns="http://www.w3.org/2000/svg" width="808" height="904" viewBox="-6 -6 808 904" role="img" aria-label="Class diagram"><style>
svg{font-family:Arial, sans-serif;font-size:13px;background:none}
.class-node > rect,.class-node > line{stroke:#181818;stroke-width:1.2}
.class-node foreignObject line{stroke-width:1.2;fill:none}
.class-node foreignObject rect{stroke-width:1.2}
.class-node:has(details:not([open])) > rect{stroke:transparent !important}
.relation{stroke:#181818;stroke-width:1.2}
.relation-decoration{stroke-width:1;stroke-linejoin:miter}
.class-node > line,.relation{fill:none}
.class-title{fill:#000000}
.class-stereotype{fill:#000000;font-style:italic}
.class-spot{text-anchor:middle;font-size:12px;font-weight:bold;fill:#000000}
.usecase-title{fill:#000000;text-anchor:middle}
.usecase-stereotype{fill:#000000;text-anchor:middle;font-style:italic}
.member,.relation-label{fill:#000000}
.relation-label{text-anchor:middle;font-size:12px}
</style><style>.package path,.package line{stroke:#181818;stroke-width:1.2}.package-title{fill:#000000;font-weight:bold}.package-stereotype{fill:#000000;font-style:italic}.class-note rect,.class-note path{stroke:#181818;stroke-width:1.2}.note-text{fill:#000000;font-size:13px}</style><path d="M 525.0533994980902 387.983197062351 C 523.4249510117621 425.644769327976 521.6802643054161 465.9946146092843 519.691037735849 512" class="relation" style="stroke:#181818;" stroke-dasharray="6 4"/><path d="M 525.8309748427673 370 L 519.0590004773065 387.72400528079197 L 531.047798518874 388.24238884391 z" class="relation-decoration" fill="none" style="stroke:#181818;stroke-width:1"/><path d="M 565.7776384188654 384.6121924249145 C 592.869099600506 422.2737646905395 624.3192392826219 465.9946146092843 657.4127358490565 512" class="relation" style="stroke:#181818;" stroke-dasharray="6 4"/><path d="M 555.2665094339623 370 L 560.9069076105606 388.1159020865489 L 570.6483692271703 381.1084827632801 z" class="relation-decoration" fill="none" style="stroke:#181818;stroke-width:1"/><path d="M 232.33647798742138 421 C 238.18385634939156 444.9931137949228 244.52747460733195 471.02241193718146 250.37106918238993 495" class="relation" style="stroke:#181818;"/><text x="245.94103121640228" y="459.1525831695482" class="relation-label" fill="#000000" font-family="Arial, sans-serif" font-size="12" text-anchor="start" textLength="29" lengthAdjust="spacing">holds</text>
<text x="223.76579957646476" y="441.32834834182904" class="relation-end-label" font-family="Arial, sans-serif" font-size="13">1</text>
<text x="235.74694583911273" y="482.2832452646938" class="relation-end-label" font-family="Arial, sans-serif" font-size="13">*</text>
<path d="M 272.5 677 C 272.5 701.6178745543584 272.5 729.1194641497287 272.5 752" class="relation" style="stroke:#181818;"/><text x="275.5000000000001" y="717.0000000000001" class="relation-label" fill="#000000" font-family="Arial, sans-serif" font-size="12" text-anchor="start" textLength="50" lengthAdjust="spacing">produces</text>
<text x="261.31548955040813" y="696.1745733258206" class="relation-end-label" font-family="Arial, sans-serif" font-size="13">1</text>
<text x="262.31548955040813" y="739" class="relation-end-label" font-family="Arial, sans-serif" font-size="13">*</text>
<path d="M 489.5034983871012 370 C 474.05795068181953 385.6423543142772 454.8092886714737 405.07857340503676 438.5 421.4000000000001 C 414.41701420161814 445.50090916983675 388.7946388658071 470.96221884904713 364.5255639416541 495" class="relation" style="stroke:#181818;"/><text x="408.7388311888355" y="464.33577282614925" class="relation-label" fill="#000000" font-family="Arial, sans-serif" font-size="12" text-anchor="start" textLength="29" lengthAdjust="spacing">owns</text>
<text x="461.30814029668386" y="381.15663172264925" class="relation-end-label" font-family="Arial, sans-serif" font-size="13">1</text>
<text x="364.6311356228798" y="479.7270839176041" class="relation-end-label" font-family="Arial, sans-serif" font-size="13">*</text>
<path d="M 210.5 165 C 210.5 188.61129849033898 210.5 214.90237196766998 210.5 239" class="relation" style="stroke:#181818;"/><text x="213.5" y="204.20000000000005" class="relation-label" fill="#000000" font-family="Arial, sans-serif" font-size="12" text-anchor="start" textLength="50" lengthAdjust="spacing">manages</text>
<text x="199.31548955040813" y="183.2883718368488" class="relation-end-label" font-family="Arial, sans-serif" font-size="13">1</text>
<text x="200.31548955040813" y="226" class="relation-end-label" font-family="Arial, sans-serif" font-size="13">*</text>
<g class="class-node" data-code="Bank"><rect x="67" y="0" width="286" height="165" fill="#F1F1F1" style="stroke:#181818;stroke-width:1.2"/><circle cx="190" cy="16" r="11" fill="#ADD1B2" stroke="#181818" stroke-width="1"/><text x="190" y="20" class="class-spot">C</text><text x="210" y="21" class="class-title">Bank</text><line x1="67" y1="32" x2="353" y2="32" style="stroke:#181818;stroke-width:1.2"/><g class="member-icon"><circle cx="77" cy="46" r="3" fill="none" stroke="#038048" stroke-width="1"/></g><text x="87" y="50" class="member">name : String</text><g class="member-icon"><circle cx="77" cy="63" r="3" fill="none" stroke="#038048" stroke-width="1"/></g><text x="87" y="67" class="member">code : String</text><g class="member-icon"><path d="M 77 76 L 81 80 L 77 84 L 73 80 Z" fill="none" stroke="#B38D22" stroke-width="1"/></g><text x="87" y="84" class="member">branches : List&lt;Branch&gt;</text><line x1="67" y1="90" x2="353" y2="90" style="stroke:#181818;stroke-width:1.2"/><g class="member-icon"><circle cx="77" cy="104" r="3" fill="#84BE84" stroke="#038048" stroke-width="1"/></g><text x="87" y="108" class="member">openAccount(holder : Customer) : Account</text><g class="member-icon"><circle cx="77" cy="121" r="3" fill="#84BE84" stroke="#038048" stroke-width="1"/></g><text x="87" y="125" class="member">closeAccount(account : Account) : Bool</text><g class="member-icon"><circle cx="77" cy="138" r="3" fill="#84BE84" stroke="#038048" stroke-width="1"/></g><text x="87" y="142" class="member">listBranches() : List&lt;Branch&gt;</text><g class="member-icon"><rect x="74" y="152" width="6" height="6" fill="#F24D5C" stroke="#C82930" stroke-width="1"/></g><text x="87" y="159" class="member">validateLicense() : Bool</text></g>
<g class="class-node" data-code="Branch"><rect x="0" y="239" width="421" height="182" fill="#F1F1F1" style="stroke:#181818;stroke-width:1.2"/><circle cx="184" cy="255" r="11" fill="#ADD1B2" stroke="#181818" stroke-width="1"/><text x="184" y="259" class="class-spot">C</text><text x="204" y="260" class="class-title">Branch</text><line x1="0" y1="271" x2="421" y2="271" style="stroke:#181818;stroke-width:1.2"/><g class="member-icon"><circle cx="10" cy="285" r="3" fill="none" stroke="#038048" stroke-width="1"/></g><text x="20" y="289" class="member">address : String</text><g class="member-icon"><circle cx="10" cy="302" r="3" fill="none" stroke="#038048" stroke-width="1"/></g><text x="20" y="306" class="member">manager : String</text><g class="member-icon"><circle cx="10" cy="319" r="3" fill="none" stroke="#038048" stroke-width="1"/></g><text x="20" y="323" class="member">openAt : Time</text><g class="member-icon"><rect x="7" y="333" width="6" height="6" fill="none" stroke="#C82930" stroke-width="1"/></g><text x="20" y="340" class="member">balance : Decimal</text><line x1="0" y1="346" x2="421" y2="346" style="stroke:#181818;stroke-width:1.2"/><g class="member-icon"><circle cx="10" cy="360" r="3" fill="#84BE84" stroke="#038048" stroke-width="1"/></g><text x="20" y="364" class="member">deposit(account : Account, amount : Decimal) : Bool</text><g class="member-icon"><circle cx="10" cy="377" r="3" fill="#84BE84" stroke="#038048" stroke-width="1"/></g><text x="20" y="381" class="member">withdraw(account : Account, amount : Decimal) : Bool</text><g class="member-icon"><circle cx="10" cy="394" r="3" fill="#84BE84" stroke="#038048" stroke-width="1"/></g><text x="20" y="398" class="member">transfer(source : Account, target : Account, amount : Decimal) : Bool</text><g class="member-icon"><rect x="7" y="408" width="6" height="6" fill="#F24D5C" stroke="#C82930" stroke-width="1"/></g><text x="20" y="415" class="member">checkFunds(account : Account, amount : Decimal) : Bool</text></g>
<g class="class-node" data-code="Account"><rect x="155" y="495" width="234" height="182" fill="#F1F1F1" style="stroke:#181818;stroke-width:1.2"/><circle cx="242" cy="511" r="11" fill="#ADD1B2" stroke="#181818" stroke-width="1"/><text x="242" y="515" class="class-spot">C</text><text x="263" y="516" class="class-title">Account</text><line x1="155" y1="527" x2="389" y2="527" style="stroke:#181818;stroke-width:1.2"/><g class="member-icon"><circle cx="165" cy="541" r="3" fill="none" stroke="#038048" stroke-width="1"/></g><text x="175" y="545" class="member">number : String</text><g class="member-icon"><circle cx="165" cy="558" r="3" fill="none" stroke="#038048" stroke-width="1"/></g><text x="175" y="562" class="member">holder : Customer</text><g class="member-icon"><path d="M 165 571 L 169 575 L 165 579 L 161 575 Z" fill="none" stroke="#B38D22" stroke-width="1"/></g><text x="175" y="579" class="member">balance : Decimal</text><g class="member-icon"><path d="M 165 588 L 169 592 L 165 596 L 161 592 Z" fill="none" stroke="#B38D22" stroke-width="1"/></g><text x="175" y="596" class="member">status : AccountStatus</text><line x1="155" y1="602" x2="389" y2="602" style="stroke:#181818;stroke-width:1.2"/><g class="member-icon"><circle cx="165" cy="616" r="3" fill="#84BE84" stroke="#038048" stroke-width="1"/></g><text x="175" y="620" class="member">getBalance() : Decimal</text><g class="member-icon"><circle cx="165" cy="633" r="3" fill="#84BE84" stroke="#038048" stroke-width="1"/></g><text x="175" y="637" class="member">deposit(amount : Decimal) : Bool</text><g class="member-icon"><circle cx="165" cy="650" r="3" fill="#84BE84" stroke="#038048" stroke-width="1"/></g><text x="175" y="654" class="member">withdraw(amount : Decimal) : Bool</text><g class="member-icon"><circle cx="165" cy="667" r="3" fill="#84BE84" stroke="#038048" stroke-width="1"/></g><text x="175" y="671" class="member">freeze(reason : String)</text></g>
<g class="class-node" data-code="AccountStatus"><rect x="389" y="33" width="123" height="98" fill="#F1F1F1" style="stroke:#181818;stroke-width:1.2"/><circle cx="404" cy="49" r="11" fill="#EB937F" stroke="#181818" stroke-width="1"/><text x="404" y="53" class="class-spot">E</text><text x="418" y="54" class="class-title">AccountStatus</text><line x1="389" y1="65" x2="512" y2="65" style="stroke:#181818;stroke-width:1.2"/><g class="member-icon"></g><text x="394" y="83" class="member">Active</text><g class="member-icon"></g><text x="394" y="100" class="member">Frozen</text><g class="member-icon"></g><text x="394" y="117" class="member">Closed</text><line x1="389" y1="123" x2="512" y2="123" style="stroke:#181818;stroke-width:1.2"/></g>
<g class="class-node" data-code="Customer"><rect x="456" y="289" width="142" height="81" fill="#F1F1F1" style="stroke:#181818;stroke-width:1.2"/><circle cx="491" cy="305" r="11" fill="#B4A7E5" stroke="#181818" stroke-width="1"/><text x="491" y="309" class="class-spot">I</text><text x="510" y="310" class="class-title" font-style="italic">Customer</text><line x1="456" y1="321" x2="598" y2="321" style="stroke:#181818;stroke-width:1.2"/><line x1="456" y1="329" x2="598" y2="329" style="stroke:#181818;stroke-width:1.2"/><g class="member-icon"><circle cx="466" cy="343" r="3" fill="#84BE84" stroke="#038048" stroke-width="1"/></g><text x="476" y="347" class="member">fullName() : String</text><g class="member-icon"><circle cx="466" cy="360" r="3" fill="#84BE84" stroke="#038048" stroke-width="1"/></g><text x="476" y="364" class="member">verified() : Bool</text></g>
<g class="class-node" data-code="Individual"><rect x="435" y="512" width="163" height="148" fill="#F1F1F1" style="stroke:#181818;stroke-width:1.2"/><circle cx="482" cy="528" r="11" fill="#ADD1B2" stroke="#181818" stroke-width="1"/><text x="482" y="532" class="class-spot">C</text><text x="503" y="533" class="class-title">Individual</text><line x1="435" y1="544" x2="598" y2="544" style="stroke:#181818;stroke-width:1.2"/><g class="member-icon"><circle cx="445" cy="558" r="3" fill="none" stroke="#038048" stroke-width="1"/></g><text x="455" y="562" class="member">firstName : String</text><g class="member-icon"><circle cx="445" cy="575" r="3" fill="none" stroke="#038048" stroke-width="1"/></g><text x="455" y="579" class="member">lastName : String</text><g class="member-icon"><rect x="442" y="589" width="6" height="6" fill="none" stroke="#C82930" stroke-width="1"/></g><text x="455" y="596" class="member">ssn : String</text><line x1="435" y1="602" x2="598" y2="602" style="stroke:#181818;stroke-width:1.2"/><g class="member-icon"><circle cx="445" cy="616" r="3" fill="#84BE84" stroke="#038048" stroke-width="1"/></g><text x="455" y="620" class="member">fullName() : String</text><g class="member-icon"><circle cx="445" cy="633" r="3" fill="#84BE84" stroke="#038048" stroke-width="1"/></g><text x="455" y="637" class="member">verified() : Bool</text><g class="member-icon"><circle cx="445" cy="650" r="3" fill="#84BE84" stroke="#038048" stroke-width="1"/></g><text x="455" y="654" class="member">setSsn(value : String)</text></g>
<g class="class-node" data-code="Company"><rect x="633" y="512" width="154" height="148" fill="#F1F1F1" style="stroke:#181818;stroke-width:1.2"/><circle cx="676" cy="528" r="11" fill="#ADD1B2" stroke="#181818" stroke-width="1"/><text x="676" y="532" class="class-spot">C</text><text x="696" y="533" class="class-title">Company</text><line x1="633" y1="544" x2="787" y2="544" style="stroke:#181818;stroke-width:1.2"/><g class="member-icon"><circle cx="643" cy="558" r="3" fill="none" stroke="#038048" stroke-width="1"/></g><text x="653" y="562" class="member">legalName : String</text><g class="member-icon"><circle cx="643" cy="575" r="3" fill="none" stroke="#038048" stroke-width="1"/></g><text x="653" y="579" class="member">taxId : String</text><g class="member-icon"><rect x="640" y="589" width="6" height="6" fill="none" stroke="#C82930" stroke-width="1"/></g><text x="653" y="596" class="member">contactEmail : String</text><line x1="633" y1="602" x2="787" y2="602" style="stroke:#181818;stroke-width:1.2"/><g class="member-icon"><circle cx="643" cy="616" r="3" fill="#84BE84" stroke="#038048" stroke-width="1"/></g><text x="653" y="620" class="member">fullName() : String</text><g class="member-icon"><circle cx="643" cy="633" r="3" fill="#84BE84" stroke="#038048" stroke-width="1"/></g><text x="653" y="637" class="member">verified() : Bool</text><g class="member-icon"><circle cx="643" cy="650" r="3" fill="#84BE84" stroke="#038048" stroke-width="1"/></g><text x="653" y="654" class="member">contact() : String</text></g>
<g class="class-node" data-code="Transaction"><rect x="187" y="752" width="171" height="131" fill="#F1F1F1" style="stroke:#181818;stroke-width:1.2"/><circle cx="231" cy="768" r="11" fill="#ADD1B2" stroke="#181818" stroke-width="1"/><text x="231" y="772" class="class-spot">C</text><text x="252" y="773" class="class-title">Transaction</text><line x1="187" y1="784" x2="358" y2="784" style="stroke:#181818;stroke-width:1.2"/><g class="member-icon"><circle cx="197" cy="798" r="3" fill="none" stroke="#038048" stroke-width="1"/></g><text x="207" y="802" class="member">id : String</text><g class="member-icon"><circle cx="197" cy="815" r="3" fill="none" stroke="#038048" stroke-width="1"/></g><text x="207" y="819" class="member">amount : Decimal</text><g class="member-icon"><circle cx="197" cy="832" r="3" fill="none" stroke="#038048" stroke-width="1"/></g><text x="207" y="836" class="member">timestamp : Time</text><g class="member-icon"><circle cx="197" cy="849" r="3" fill="none" stroke="#038048" stroke-width="1"/></g><text x="207" y="853" class="member">type : TransactionType</text><line x1="187" y1="859" x2="358" y2="859" style="stroke:#181818;stroke-width:1.2"/><g class="member-icon"><circle cx="197" cy="873" r="3" fill="#84BE84" stroke="#038048" stroke-width="1"/></g><text x="207" y="877" class="member">reverse() : Bool</text></g>
<g class="class-node" data-code="TransactionType"><rect x="547" y="33" width="137" height="98" fill="#F1F1F1" style="stroke:#181818;stroke-width:1.2"/><circle cx="562" cy="49" r="11" fill="#EB937F" stroke="#181818" stroke-width="1"/><text x="562" y="53" class="class-spot">E</text><text x="576" y="54" class="class-title">TransactionType</text><line x1="547" y1="65" x2="684" y2="65" style="stroke:#181818;stroke-width:1.2"/><g class="member-icon"></g><text x="552" y="83" class="member">Deposit</text><g class="member-icon"></g><text x="552" y="100" class="member">Withdrawal</text><g class="member-icon"></g><text x="552" y="117" class="member">Transfer</text><line x1="547" y1="123" x2="684" y2="123" style="stroke:#181818;stroke-width:1.2"/></g>
</svg>
